# xmcd
#
# Track frame offsets:
# 150
# 16150
# 31022
# 45320
# 63601
# 72788
# 87615
# 100417
# 114983
# 132570
# 148428
# 157699
# 171909
# 189275
# 207047
# 216442
# 231267
# 247875
# 266188
# 283823
#
# Disc length: 3972 seconds
#
#
# Revision: 0
# Processed by: cddbd v1.5.2PL0 Copyright (c) Steve Scherf et al.
# Submitted via: FreeRIP 2.945 
#
DISCID=250f8214
DTITLE=Various Artist - Westerbro LineDance - Let øvede 2
DYEAR=2008
DGENRE=Country
TTITLE0=Bonnie Tyler - It's a heartache
TTITLE1=Bekka and Billy - Old hickory lake
TTITLE2=Billy Curington - I wanna be hillbilly
TTITLE3=E-Type - Hold your horses
TTITLE4=Elvis Presley - All shook up
TTITLE5=Scooter Lee - Honey
TTITLE6=Elvis Presley - Kiss me quick
TTITLE7=Bellamy Brothers - Tired of getting my butt kicked
TTITLE8=Martina McBride - Keeping my distance
TTITLE9=Kenny Rogers and Dolly Parton - Love is strange
TTITLE10=Ray Charles - Hit the road Jack
TTITLE11=Loretta Cooper - Mr. Man in the moon
TTITLE12=Athos and Mancini Orchestra - Mega mambo
TTITLE13=Soluna - Monday mi amor
TTITLE14=Millie Smalll - My boy lollipop
TTITLE15=Trace Adkins - Nothin' but taillights
TTITLE16=O-Zone - Dragostei din tei
TTITLE17=Atomic Kitten - Warking on the water
TTITLE18=Englebert Humperding - Quando Quando Quando
TTITLE19=Rebel Amor - Rebel amor
EXTD=
EXTT0=
EXTT1=
EXTT2=
EXTT3=
EXTT4=
EXTT5=
EXTT6=
EXTT7=
EXTT8=
EXTT9=
EXTT10=
EXTT11=
EXTT12=
EXTT13=
EXTT14=
EXTT15=
EXTT16=
EXTT17=
EXTT18=
EXTT19=
PLAYORDER=
